<svg width="263" height="263" viewBox="0 0 263 263" fill="none" xmlns="http://www.w3.org/2000/svg">
<g clip-path="url(#clip0_4_4693)">
<path d="M112.86 0.404935C113.18 0.362557 113.5 0.339013 113.823 0.334305C116.683 0.289572 121.227 0.383746 123.875 0.847549C131.685 2.15656 139.887 6.87935 146.736 10.9382C146.906 11.0371 147.068 11.1407 147.23 11.2537C152.401 14.8346 159.963 20.332 166.122 21.4903C174.159 23.4774 175.282 22.757 183.141 23.6963C198.195 24.6781 210.437 32.6004 220.036 44.3791C226.748 52.3274 230.586 62.3498 235.913 71.1903C242.381 81.7353 254.284 100.669 261.114 110.616C263.527 113.938 263.464 117.881 260.643 121.015C258.329 123.586 255.252 124.485 251.777 125.102C229.877 128.351 219.235 155.511 228.073 174.578C240.493 200.514 264.749 195.598 262.602 201.959C262.072 203.852 258.753 203.949 256.999 203.942L238.797 203.88C237.222 203.873 234.88 203.591 232.518 203.685C226.797 203.913 222.925 209.667 225.058 215.059C227.191 220.45 232.923 225.001 237.182 228.276C242.654 232.803 257.594 241.072 261.229 249.849C262.927 253.945 261.034 258.673 257.011 260.54C242.571 267.238 212.549 256.787 201.076 248.938C200.902 248.82 200.726 248.709 200.544 248.603C191.567 243.421 184.302 236.064 173.768 234.044C173.196 233.936 172.613 233.879 172.031 233.889C161.053 234.054 158.461 239.73 145.976 242.068C138.187 243.294 130.286 240.26 123.492 236.681C123.285 236.57 123.082 236.453 122.884 236.325C114.218 230.783 101.766 223.836 92.1438 220.121C85.7212 217.237 79.5835 214.955 72.5111 215.817C61.222 216.568 59.315 220.697 50.5828 225.131C50.2155 225.317 49.8365 225.481 49.4457 225.609C37.9683 229.314 26.6393 222.108 16.9324 216.556C16.7864 216.474 16.6475 216.387 16.5062 216.295C10.6557 212.457 -0.275447 207.337 1.57506 199.537C1.97058 197.872 2.94057 196.403 4.23074 195.278C13.8976 186.849 33.9754 189.82 45.1726 186.576C63.049 182.204 82.8889 176.332 95.5717 162.348C103.873 154.1 100.542 141.625 88.7583 139.522C78.6323 137.907 71.8495 143.167 60.2921 137.924C51.0513 133.858 42.8724 127.621 34.0154 122.828C30.9006 120.947 22.2649 115.08 18.8653 113.641C18.7452 113.592 18.6275 113.54 18.5098 113.483C-1.907 103.56 -5.77281 74.0837 9.29491 57.8553C18.3402 47.5245 30.7805 43.8565 42.3992 37.2314C56.9701 29.3138 73.2668 15.8823 87.7695 7.78106C88.0496 7.62332 88.3369 7.48441 88.6312 7.36198C96.2074 4.20012 104.78 1.47616 112.86 0.40258V0.404935Z" fill="black"/>
</g>
<defs>
<clipPath id="clip0_4_4693">
<rect width="263" height="263" fill="white"/>
</clipPath>
</defs>
</svg>
